<?xml version="1.0" standalone="no"?>
<!DOCTYPE svg PUBLIC "-//W3C//DTD SVG 20010904//EN"
 "http://www.w3.org/TR/2001/REC-SVG-20010904/DTD/svg10.dtd">
<svg version="1.0" xmlns="http://www.w3.org/2000/svg"
 width="6000.000000pt" height="2200.000000pt" viewBox="0 0 6000.000000 2200.000000"
 preserveAspectRatio="xMidYMid meet">

<g transform="translate(0.000000,2200.000000) scale(0.100000,-0.100000)"
fill="#000000" stroke="none">
<path d="M10330 21649 c-356 -9 -721 -36 -1065 -80 -211 -26 -304 -39 -345
-48 -25 -6 -70 -13 -100 -16 -30 -4 -72 -11 -94 -16 -21 -6 -77 -17 -125 -25
-47 -7 -117 -21 -156 -29 -164 -35 -263 -57 -315 -70 -30 -8 -102 -26 -160
-40 -210 -53 -297 -77 -485 -134 -38 -12 -92 -28 -120 -36 -59 -17 -380 -128
-515 -178 -52 -19 -115 -42 -140 -51 -25 -9 -54 -20 -65 -26 -11 -5 -72 -30
-135 -55 -63 -26 -133 -54 -155 -64 -111 -50 -135 -61 -139 -61 -15 0 -578
-276 -742 -363 -133 -72 -532 -304 -639 -373 -55 -35 -106 -67 -114 -70 -17
-9 -330 -219 -409 -275 -34 -24 -87 -62 -118 -84 -31 -22 -67 -50 -80 -61 -12
-12 -28 -24 -35 -26 -7 -2 -9 -10 -5 -16 7 -12 41 -9 81 8 11 4 88 29 170 55
83 26 164 51 180 57 17 5 59 18 95 28 36 9 108 30 160 45 239 68 475 129 583
151 38 8 72 16 77 19 4 3 41 12 82 20 40 8 114 23 163 34 80 17 260 53 475 95
41 8 98 18 125 21 28 4 82 13 120 20 81 16 310 50 439 66 49 5 92 12 96 14 3
2 62 9 130 15 69 6 163 18 210 25 47 8 137 17 200 20 63 4 142 11 175 15 33 5
204 17 380 27 591 33 1714 18 2020 -27 33 -4 105 -11 160 -14 55 -4 143 -13
195 -21 52 -8 149 -21 215 -30 203 -25 335 -44 373 -54 21 -5 66 -13 101 -16
35 -4 78 -12 95 -17 17 -5 69 -16 116 -24 47 -8 123 -23 170 -33 188 -43 269
-61 350 -81 47 -12 110 -27 140 -34 30 -7 80 -21 110 -30 30 -9 78 -23 105
-31 131 -37 233 -68 265 -80 19 -7 78 -27 130 -44 100 -32 279 -95 368 -130
137 -55 159 -63 193 -76 20 -7 45 -18 55 -24 11 -6 73 -33 139 -61 242 -103
738 -363 925 -484 197 -128 399 -265 462 -312 42 -33 89 -68 104 -79 31 -22
186 -146 194 -154 3 -3 32 -28 65 -56 295 -244 625 -593 910 -960 90 -115 278
-390 353 -515 161 -269 296 -532 401 -780 18 -41 38 -87 46 -102 8 -14 15 -32
15 -40 0 -7 7 -26 16 -43 9 -16 22 -48 29 -70 21 -62 45 -128 54 -150 14 -30
37 -104 92 -285 69 -231 76 -254 98 -350 10 -47 28 -125 40 -175 11 -49 26
-121 31 -159 6 -38 13 -73 16 -77 5 -9 29 -178 45 -309 5 -47 17 -146 25 -220
21 -169 30 -782 15 -960 -18 -227 -41 -444 -51 -490 -5 -25 -12 -72 -16 -105
-3 -33 -12 -85 -19 -115 -7 -30 -16 -75 -19 -100 -7 -51 -34 -172 -77 -340
-16 -63 -36 -140 -43 -170 -8 -30 -26 -91 -41 -135 -15 -44 -33 -100 -40 -125
-14 -48 -79 -230 -115 -320 -12 -30 -27 -71 -35 -91 -7 -20 -18 -45 -23 -55
-6 -11 -48 -95 -93 -189 -218 -449 -489 -857 -816 -1225 -162 -182 -307 -328
-513 -515 -56 -50 -339 -278 -380 -305 -12 -8 -39 -28 -59 -44 -32 -25 -148
-105 -190 -131 -9 -6 -47 -31 -86 -56 -367 -239 -921 -510 -1335 -654 -105
-36 -191 -64 -275 -90 -49 -15 -102 -31 -116 -36 -14 -6 -50 -16 -80 -24 -30
-7 -103 -26 -164 -43 -166 -45 -395 -96 -499 -112 -38 -6 -73 -13 -77 -16 -4
-2 -56 -11 -116 -19 -59 -9 -116 -18 -126 -21 -10 -3 -55 -12 -100 -19 -146
-23 -280 -45 -367 -60 -47 -8 -116 -19 -155 -24 -141 -19 -292 -42 -370 -56
-44 -8 -109 -17 -145 -20 -36 -4 -81 -11 -102 -16 -20 -5 -83 -16 -140 -24
-56 -8 -164 -24 -238 -36 -74 -11 -176 -27 -226 -34 -50 -7 -115 -18 -145 -24
-60 -12 -203 -37 -324 -56 -79 -13 -192 -35 -290 -56 -27 -6 -79 -17 -115 -24
-89 -18 -227 -49 -335 -75 -230 -56 -308 -76 -470 -125 -49 -15 -103 -31 -120
-36 -37 -10 -118 -36 -165 -54 -19 -7 -60 -21 -90 -32 -84 -31 -270 -103 -317
-124 -23 -11 -45 -19 -48 -19 -12 0 -371 -181 -432 -218 -359 -214 -610 -413
-849 -672 -119 -130 -300 -372 -365 -490 -11 -19 -30 -53 -44 -75 -21 -37
-138 -270 -170 -340 -64 -142 -87 -235 -105 -425 -7 -69 -16 -161 -20 -205
-12 -111 -12 -491 0 -600 36 -335 56 -439 131 -700 21 -70 28 -90 69 -200 144
-383 380 -743 690 -1055 177 -179 233 -227 474 -412 35 -27 281 -189 362 -238
160 -98 636 -338 724 -365 14 -4 30 -11 36 -16 5 -5 39 -16 75 -25 207 -52
376 -90 480 -109 42 -7 93 -18 115 -24 47 -12 190 -37 333 -56 57 -8 129 -20
160 -25 120 -22 354 -44 852 -81 188 -13 1010 -7 1174 10 61 6 171 15 245 21
164 12 495 47 519 55 9 3 66 12 127 20 154 20 334 51 554 97 232 47 288 60
335 73 28 7 66 16 85 20 19 4 64 15 100 25 36 10 101 28 145 39 101 27 163 44
245 69 36 11 106 32 155 47 50 15 99 31 110 36 11 5 67 24 125 43 129 42 294
101 337 121 17 8 35 15 39 15 9 0 275 106 319 127 17 8 62 27 100 42 224 91
858 407 1005 502 8 5 29 16 45 25 104 53 364 215 595 368 572 381 1029 748
1503 1206 165 160 133 128 287 286 308 318 626 691 855 1003 33 44 78 105 100
135 22 29 47 64 55 76 8 12 23 32 32 44 49 64 324 484 397 606 67 111 227 391
275 480 92 171 366 730 366 747 0 3 9 27 21 52 40 86 57 126 79 181 12 30 28
69 35 85 7 17 25 62 40 100 14 39 33 86 40 105 8 19 21 53 29 75 7 22 32 92
55 155 23 63 48 136 55 162 8 25 17 51 20 57 4 6 13 32 21 58 7 27 22 77 33
113 34 110 81 271 102 350 11 41 27 98 35 125 8 28 26 100 40 160 14 61 32
135 40 165 16 60 40 175 60 285 7 39 17 97 24 130 34 184 50 276 56 330 3 33
10 80 15 105 21 98 69 559 91 880 14 201 14 1090 0 1290 -23 331 -66 755 -91
895 -6 33 -18 105 -26 160 -39 255 -85 493 -134 700 -11 44 -29 121 -40 170
-12 50 -27 110 -34 135 -7 25 -23 83 -36 130 -22 84 -35 131 -80 280 -45 151
-62 206 -76 240 -7 19 -18 51 -23 70 -9 31 -75 222 -96 275 -9 23 -46 120 -82
215 -13 36 -28 74 -33 85 -5 11 -25 58 -44 105 -135 336 -438 956 -576 1180
-6 8 -17 29 -25 45 -9 17 -21 39 -28 50 -6 11 -50 83 -96 160 -74 124 -182
295 -230 365 -10 14 -57 84 -106 155 -121 177 -280 397 -352 484 -15 19 -59
75 -97 125 -38 50 -73 93 -77 96 -3 3 -41 48 -84 100 -74 90 -139 165 -250
289 -28 31 -66 74 -85 96 -83 96 -598 603 -730 720 -188 166 -189 167 -295
255 -49 41 -99 83 -110 93 -11 10 -53 43 -95 75 -41 31 -124 95 -185 142 -60
47 -121 93 -135 103 -14 9 -65 46 -115 82 -148 105 -495 337 -570 379 -16 9
-61 37 -100 61 -38 25 -79 49 -90 55 -11 5 -38 21 -60 35 -22 13 -69 41 -105
60 -36 20 -83 47 -106 59 -223 127 -618 322 -864 427 -63 28 -127 56 -142 64
-14 8 -32 15 -40 15 -7 0 -26 7 -43 16 -16 9 -46 22 -65 29 -19 8 -60 23 -90
35 -79 31 -236 89 -300 112 -30 10 -64 23 -75 28 -37 16 -340 114 -465 150
-41 12 -97 28 -125 37 -57 17 -143 40 -295 78 -58 14 -130 32 -160 41 -30 8
-89 21 -130 30 -41 8 -115 24 -165 35 -49 11 -126 26 -170 33 -44 8 -98 18
-120 24 -22 6 -65 13 -95 17 -30 3 -89 12 -130 20 -41 8 -104 17 -140 20 -36
4 -84 11 -106 16 -23 5 -116 15 -207 24 -90 8 -171 17 -178 19 -8 3 -90 10
-184 16 -93 5 -237 15 -320 20 -199 13 -485 16 -785 9z"/>
<path d="M53120 19450 c-13 -8 -15 -522 -18 -4507 l-2 -4497 27 -23 28 -22
894 -1 c840 0 895 1 907 18 11 14 13 206 14 1044 0 564 3 1033 6 1042 3 9 12
16 19 16 7 0 486 -472 1063 -1050 578 -577 1062 -1054 1077 -1060 17 -6 427
-10 1179 -10 l1153 0 11 25 c10 22 8 28 -28 61 -78 73 -2690 2690 -2710 2716
-20 26 -20 28 -4 45 9 10 576 580 1260 1268 1162 1168 1242 1251 1230 1270
-13 20 -23 20 -1175 23 -1065 2 -1165 1 -1194 -14 -18 -10 -440 -425 -939
-923 -518 -516 -915 -906 -925 -906 -17 0 -18 129 -21 2734 -1 2001 -5 2738
-13 2747 -10 12 -169 14 -918 14 -553 0 -912 -4 -921 -10z"/>
<path d="M9725 16400 c-218 -8 -821 -47 -865 -55 -14 -3 -99 -12 -190 -20
-221 -20 -412 -42 -485 -55 -33 -6 -112 -17 -175 -25 -63 -9 -169 -24 -235
-35 -66 -10 -165 -26 -220 -35 -55 -8 -116 -20 -135 -25 -19 -5 -64 -14 -100
-19 -36 -6 -119 -22 -185 -36 -66 -14 -151 -32 -190 -39 -38 -8 -90 -19 -115
-25 -25 -6 -137 -34 -250 -62 -224 -55 -308 -77 -415 -107 -38 -11 -101 -29
-140 -40 -64 -18 -134 -39 -255 -77 -25 -8 -74 -23 -110 -34 -36 -11 -121 -40
-190 -64 -69 -24 -168 -58 -220 -77 -52 -18 -99 -36 -105 -40 -5 -4 -21 -11
-35 -15 -62 -18 -432 -169 -575 -235 -33 -15 -94 -42 -135 -60 -64 -28 -476
-235 -580 -291 -96 -53 -157 -88 -288 -167 -78 -48 -157 -96 -175 -106 -18
-11 -99 -64 -182 -119 -608 -402 -1129 -870 -1555 -1397 -139 -172 -330 -446
-421 -603 -19 -33 -43 -73 -53 -90 -57 -94 -196 -368 -251 -492 -7 -16 -22
-51 -34 -76 -12 -25 -21 -50 -21 -55 -1 -5 -9 -27 -20 -49 -11 -22 -19 -44
-20 -48 0 -5 -6 -23 -14 -40 -39 -94 -82 -226 -162 -502 -29 -104 -90 -383
-103 -480 -6 -38 -15 -101 -20 -140 -35 -240 -43 -351 -48 -655 -3 -188 -1
-390 6 -480 13 -197 38 -442 51 -500 5 -25 14 -87 20 -139 6 -52 13 -97 15
-101 2 -4 13 -56 24 -116 22 -119 50 -245 80 -369 11 -44 24 -100 30 -125 6
-25 18 -67 26 -95 8 -27 26 -90 41 -140 61 -206 183 -553 238 -680 8 -16 25
-59 39 -95 14 -36 33 -79 41 -95 9 -17 16 -33 16 -37 0 -16 196 -420 281 -578
44 -83 156 -280 179 -315 8 -13 32 -52 53 -87 69 -115 80 -132 174 -273 110
-164 226 -331 266 -380 4 -5 51 -66 103 -135 53 -69 104 -135 114 -146 10 -12
50 -62 90 -110 98 -121 130 -157 325 -372 190 -209 598 -605 758 -736 40 -32
48 -36 53 -21 7 18 3 28 -52 125 -87 153 -250 473 -313 612 -61 138 -84 191
-111 258 -12 30 -31 74 -41 98 -10 23 -19 47 -19 53 0 6 -7 25 -15 42 -18 41
-43 110 -60 169 -7 25 -16 51 -20 57 -6 11 -12 31 -67 221 -105 363 -168 707
-189 1040 -12 176 -6 610 10 720 5 36 17 119 26 185 9 66 20 136 25 155 5 19
21 85 35 145 41 182 109 391 190 590 32 78 140 304 165 345 5 8 32 56 60 105
115 204 209 340 384 559 150 187 180 221 381 421 277 276 541 491 900 731 104
70 124 82 240 154 39 24 81 50 95 59 14 8 41 24 60 34 19 10 46 26 60 35 14 9
50 29 80 46 30 16 78 42 105 57 50 28 294 149 350 174 109 49 152 67 250 105
61 24 124 49 140 55 38 17 356 123 415 140 109 30 269 76 315 90 170 50 726
174 990 220 44 8 132 23 195 35 63 11 144 25 180 31 36 5 101 16 145 25 89 16
227 37 384 59 56 9 107 17 111 20 5 3 55 12 112 19 128 18 279 42 378 61 41 8
100 17 130 21 30 3 69 10 85 15 17 5 73 15 125 24 226 36 679 134 890 194 241
67 293 85 517 169 197 75 481 229 636 346 157 119 297 268 403 431 117 180
256 493 280 630 3 22 11 48 15 57 5 9 20 83 34 164 45 263 31 669 -30 864 -7
25 -18 65 -23 90 -11 46 -72 222 -96 275 -119 259 -208 387 -396 575 -162 163
-286 260 -469 369 -154 91 -175 101 -336 171 -54 24 -157 60 -220 78 -291 82
-371 93 -705 97 -151 1 -369 -1 -485 -5z"/>
<path d="M25785 15964 c-219 -22 -347 -37 -380 -45 -22 -6 -77 -19 -123 -29
-176 -41 -366 -118 -561 -227 -158 -89 -316 -209 -464 -352 -98 -96 -104 -101
-111 -101 -19 0 -27 91 -26 312 1 134 -1 251 -5 260 -4 11 -23 19 -58 23 -29
3 -433 5 -899 3 -834 -3 -847 -3 -862 -23 -14 -18 -15 -470 -16 -4047 0 -2939
3 -4034 11 -4052 7 -15 23 -26 41 -30 17 -3 421 -6 899 -6 l868 0 20 29 21 29
0 1565 c0 861 3 1572 6 1581 8 22 61 21 73 -1 11 -21 132 -116 253 -201 202
-141 539 -288 763 -332 33 -7 80 -18 105 -25 25 -8 137 -24 250 -36 501 -53
1008 18 1410 198 232 104 381 198 580 364 134 111 364 349 419 433 9 13 43 62
76 107 70 96 83 118 162 259 194 345 298 679 348 1115 17 141 19 576 5 715
-12 115 -58 394 -71 427 -5 13 -15 52 -24 88 -13 58 -31 112 -94 289 -27 76
-154 334 -199 405 -96 152 -178 269 -234 332 -13 15 -43 51 -68 80 -66 79
-245 256 -320 317 -36 29 -71 58 -79 64 -240 197 -619 372 -981 453 -183 40
-593 73 -735 59z m-204 -1608 c64 -8 142 -24 174 -35 33 -12 66 -21 74 -21 14
0 132 -52 161 -70 8 -6 26 -15 39 -20 22 -10 118 -76 131 -90 3 -3 31 -28 64
-55 53 -45 135 -139 194 -223 46 -65 126 -238 149 -322 31 -116 53 -282 53
-410 0 -110 -23 -318 -38 -348 -5 -9 -13 -35 -16 -57 -10 -56 -99 -247 -149
-320 -58 -84 -153 -186 -247 -265 -86 -72 -111 -89 -211 -144 -209 -113 -472
-159 -740 -131 -136 14 -203 26 -244 45 -11 5 -38 14 -60 20 -135 41 -294 141
-432 273 -297 285 -411 640 -363 1130 30 307 212 622 475 820 257 194 598 271
986 223z"/>
<path d="M38670 15964 c-19 -3 -88 -11 -152 -19 -166 -21 -296 -59 -508 -147
-71 -30 -226 -114 -266 -144 -17 -13 -34 -24 -39 -24 -4 0 -20 -10 -35 -22
-16 -13 -45 -34 -65 -48 -62 -42 -216 -169 -280 -230 -64 -61 -108 -81 -119
-54 -3 9 -6 122 -6 253 0 225 -1 238 -20 259 l-21 22 -889 0 -889 0 -21 -22
-20 -22 0 -2661 c0 -2392 2 -2663 16 -2683 l15 -22 898 0 c857 0 899 1 914 18
16 17 17 137 17 1527 0 1483 0 1510 21 1639 21 129 30 157 94 288 38 77 51 96
124 186 207 257 482 416 762 442 252 23 471 -28 649 -153 44 -31 158 -143 192
-189 92 -122 162 -253 189 -353 11 -38 25 -86 31 -105 9 -26 13 -450 15 -1647
l4 -1611 35 -21 c35 -21 42 -21 901 -21 859 0 866 0 899 21 l34 21 0 1846 c0
1812 0 1849 -20 1977 -28 176 -62 311 -104 421 -136 348 -395 667 -681 840
-131 79 -374 204 -395 204 -6 0 -27 8 -48 19 -64 32 -347 122 -427 136 -22 3
-76 15 -120 25 -143 34 -576 68 -685 54z"/>
<path d="M44185 15959 c-135 -11 -366 -39 -376 -44 -4 -3 -50 -14 -103 -25
-53 -11 -119 -27 -148 -36 -107 -33 -263 -87 -273 -93 -5 -4 -26 -14 -45 -21
-39 -15 -258 -121 -305 -148 -134 -77 -252 -154 -340 -221 -326 -249 -612
-554 -800 -852 -48 -77 -185 -338 -185 -354 0 -7 -11 -32 -24 -57 -13 -25 -27
-60 -31 -79 -4 -19 -14 -47 -22 -62 -20 -39 -50 -150 -78 -292 -14 -66 -29
-140 -35 -165 -17 -70 -25 -605 -11 -742 6 -65 16 -129 21 -144 6 -14 17 -71
25 -126 8 -55 21 -112 29 -126 7 -15 19 -51 25 -81 6 -30 15 -59 20 -65 5 -6
16 -33 24 -61 8 -27 25 -72 37 -100 32 -76 71 -158 81 -175 5 -8 18 -33 29
-55 20 -41 60 -109 94 -161 11 -16 31 -47 45 -69 128 -200 374 -466 616 -665
148 -122 294 -227 365 -262 14 -7 38 -22 53 -32 53 -36 250 -136 342 -174 165
-68 351 -127 475 -151 47 -10 91 -20 98 -25 27 -16 451 -56 602 -56 182 0 605
37 660 58 14 5 59 15 100 21 97 16 358 88 475 131 28 10 66 23 85 29 101 29
265 101 340 151 25 16 59 36 75 45 17 8 38 28 48 44 18 32 41 -22 -185 441
-55 113 -138 284 -185 380 -46 96 -89 184 -96 195 -6 11 -17 34 -25 50 -8 17
-24 50 -35 75 -34 72 -81 139 -96 140 -8 0 -44 -17 -80 -39 -36 -21 -84 -44
-106 -51 -22 -7 -44 -16 -50 -20 -16 -13 -212 -66 -330 -91 -168 -34 -399 -38
-542 -10 -133 27 -261 70 -345 116 -35 19 -76 42 -93 51 -162 89 -395 347
-488 539 -68 140 -66 134 -113 315 -33 128 -26 547 10 634 7 17 19 56 26 86 7
30 19 65 27 78 8 13 20 40 28 61 18 53 99 184 160 261 94 118 171 192 308 293
41 31 221 127 238 127 5 0 29 8 52 19 23 10 105 31 182 46 125 24 156 27 285
23 171 -6 318 -30 505 -83 33 -9 71 -23 85 -30 14 -7 59 -30 100 -50 41 -20
89 -45 106 -56 36 -22 56 -18 73 14 6 12 15 29 20 37 6 8 28 53 51 100 22 47
45 92 50 100 46 78 470 954 470 972 0 27 -23 51 -89 94 -24 16 -62 41 -85 57
-58 39 -264 137 -288 137 -5 0 -37 11 -71 24 -57 22 -176 58 -347 106 -66 18
-309 65 -390 75 -109 13 -453 35 -535 34 -49 -1 -135 -5 -190 -10z"/>
<path d="M48590 15963 c-148 -11 -368 -36 -413 -48 -28 -7 -79 -18 -112 -25
-162 -32 -406 -126 -594 -228 -127 -70 -125 -69 -191 -115 -30 -20 -66 -45
-80 -54 -30 -21 -185 -148 -221 -183 -15 -14 -44 -41 -65 -61 -72 -68 -244
-263 -312 -354 -19 -25 -109 -161 -127 -191 -132 -220 -196 -358 -273 -579
-32 -95 -70 -226 -77 -270 -3 -22 -15 -76 -25 -120 -74 -319 -74 -946 0 -1270
10 -44 21 -98 24 -120 8 -45 44 -169 87 -295 74 -217 179 -431 307 -625 135
-204 315 -412 481 -555 29 -25 62 -54 74 -65 61 -56 261 -193 342 -234 22 -12
69 -36 105 -55 142 -74 187 -93 370 -151 249 -78 560 -125 833 -125 156 0 529
38 559 56 6 4 53 17 107 29 145 35 359 115 441 166 8 5 33 18 55 29 41 20 168
99 219 135 66 47 227 184 295 252 41 40 76 73 78 73 2 0 13 -5 24 -10 18 -10
19 -24 19 -269 0 -256 0 -258 23 -279 l23 -22 873 0 872 0 29 22 30 22 0 2662
0 2662 -34 21 c-33 21 -40 21 -895 21 -845 0 -863 0 -901 -20 l-40 -20 0 -208
c0 -200 -4 -232 -31 -232 -3 0 -53 39 -110 86 -301 248 -624 403 -1019 488
-219 48 -551 74 -750 59z m901 -1607 c63 -8 138 -24 167 -35 29 -12 60 -21 70
-21 30 0 227 -105 306 -164 165 -122 295 -276 376 -446 54 -113 79 -184 95
-265 8 -44 19 -100 24 -125 16 -74 13 -355 -5 -430 -8 -36 -19 -89 -24 -119
-10 -57 -36 -131 -76 -217 -13 -28 -24 -54 -24 -57 0 -4 -28 -48 -62 -99 -70
-103 -211 -252 -303 -319 -143 -104 -368 -190 -545 -208 -58 -6 -125 -13 -148
-16 -49 -5 -254 10 -347 26 -407 70 -764 376 -896 769 -87 258 -98 578 -29
840 55 212 165 399 327 556 68 67 197 163 246 184 12 6 29 14 37 20 26 16 146
70 158 70 7 0 40 10 74 22 130 44 375 59 579 34z"/>
<path d="M28888 15789 l-38 -19 0 -1643 0 -1642 29 -225 c16 -124 33 -236 39
-250 5 -14 15 -56 21 -95 12 -64 22 -100 65 -235 41 -125 65 -183 132 -310 19
-36 43 -84 54 -106 11 -23 27 -47 35 -54 8 -7 15 -16 15 -21 0 -19 129 -176
211 -258 78 -78 239 -211 256 -211 4 0 16 -9 27 -19 35 -32 278 -159 336 -176
14 -4 39 -15 55 -25 17 -10 46 -21 65 -25 19 -4 49 -14 65 -23 55 -28 399
-112 580 -142 158 -26 239 -35 507 -55 510 -37 1181 2 1573 92 39 8 95 21 125
28 78 18 242 69 325 100 39 15 88 33 110 42 22 8 56 23 75 33 19 11 51 26 70
35 50 22 89 44 133 71 101 65 124 80 152 101 17 13 41 31 55 40 41 29 265 255
291 294 137 203 193 304 264 479 51 127 129 417 140 525 3 33 13 96 20 140 31
171 35 413 35 1968 0 1554 0 1567 -20 1587 -20 20 -33 20 -909 20 l-888 0 -27
-25 -26 -24 0 -1338 c0 -1434 -6 -1653 -50 -1828 -11 -44 -20 -88 -20 -97 0
-25 -54 -182 -86 -253 -46 -100 -93 -166 -175 -246 -100 -97 -213 -155 -389
-201 -123 -32 -128 -33 -345 -32 -129 0 -236 5 -260 11 -22 7 -74 20 -115 31
-158 42 -257 98 -367 207 -45 46 -91 100 -103 121 -11 22 -27 50 -35 64 -27
47 -65 137 -65 154 0 10 -9 38 -19 64 -29 69 -69 296 -81 457 -6 87 -10 662
-10 1512 l0 1372 -33 25 -34 26 -864 0 c-841 -1 -865 -1 -901 -21z"/>
<path d="M44033 10029 l-33 -21 0 -1522 c0 -1662 3 -1580 -54 -1542 -15 9 -35
25 -45 34 -9 9 -32 28 -51 42 -18 14 -46 35 -61 48 -15 12 -30 22 -34 22 -4 0
-25 13 -48 28 -64 42 -76 49 -162 91 -153 73 -240 105 -350 127 -38 8 -92 21
-120 29 -87 26 -391 40 -592 27 -99 -6 -196 -17 -218 -25 -22 -8 -65 -18 -95
-22 -58 -8 -253 -67 -273 -83 -7 -5 -30 -15 -52 -22 -22 -7 -47 -18 -55 -25
-8 -7 -26 -16 -40 -20 -23 -6 -56 -26 -130 -75 -14 -9 -32 -19 -42 -23 -42
-15 -195 -143 -313 -262 -117 -117 -255 -281 -255 -304 0 -5 -7 -14 -16 -22
-8 -7 -24 -29 -35 -48 -11 -20 -33 -58 -49 -86 -81 -139 -163 -335 -194 -465
-7 -30 -20 -77 -29 -105 -9 -27 -21 -69 -27 -92 -16 -62 -27 -61 -40 4 -45
239 -113 448 -200 618 -120 236 -218 359 -465 582 -10 10 -31 26 -45 35 -14
10 -39 28 -56 40 -96 70 -145 100 -234 145 -19 9 -42 22 -50 29 -8 6 -33 17
-55 24 -22 7 -46 18 -54 24 -14 11 -108 45 -196 72 -27 8 -70 21 -95 29 -25 8
-85 21 -135 29 -49 8 -106 20 -125 26 -19 6 -128 16 -243 22 -234 14 -550 0
-623 -26 -23 -8 -68 -17 -100 -21 -33 -4 -92 -18 -133 -31 -40 -13 -79 -24
-85 -24 -7 0 -28 -9 -49 -19 -20 -10 -49 -22 -64 -26 -27 -6 -146 -58 -173
-75 -8 -5 -33 -18 -55 -29 -45 -23 -61 -33 -122 -73 -23 -15 -44 -28 -48 -28
-4 0 -20 -10 -35 -22 -16 -13 -50 -39 -77 -58 -26 -19 -53 -39 -60 -45 -418
-355 -637 -681 -766 -1142 -35 -122 -67 -384 -67 -543 0 -277 67 -616 162
-824 61 -135 129 -254 198 -351 28 -38 62 -88 77 -110 40 -60 327 -342 418
-410 79 -60 112 -83 150 -107 11 -7 33 -22 50 -33 108 -72 442 -225 490 -225
8 0 41 -9 72 -20 32 -11 99 -26 148 -34 50 -9 108 -21 130 -28 57 -19 731 -18
795 1 25 7 99 21 165 31 131 20 213 40 318 76 38 13 76 24 85 24 10 0 33 8 52
19 19 10 51 23 70 30 41 13 215 99 256 127 41 27 65 41 99 60 17 9 44 29 61
43 17 14 44 35 60 46 107 76 276 250 385 396 114 155 127 182 94 209 -35 29
-951 480 -974 480 -19 0 -49 -23 -106 -78 -287 -277 -474 -352 -875 -352 -202
0 -323 26 -474 102 -211 106 -339 255 -405 470 -26 85 -38 217 -22 246 l12 22
1449 0 1450 0 16 -25 c10 -16 26 -87 40 -183 41 -284 136 -555 280 -792 102
-169 207 -300 343 -430 130 -124 171 -157 293 -239 42 -28 87 -55 100 -61 12
-5 30 -15 38 -20 8 -6 31 -17 50 -25 19 -9 42 -20 50 -25 15 -10 135 -55 225
-85 28 -9 93 -25 145 -35 52 -11 111 -24 130 -30 48 -15 496 -24 590 -12 164
22 394 83 475 126 17 9 37 16 45 16 9 0 26 7 39 17 13 9 42 26 65 38 142 75
267 167 383 282 38 38 61 53 76 51 21 -3 22 -7 27 -183 5 -171 6 -182 29 -212
l25 -33 643 0 644 0 34 35 35 34 0 3375 0 3375 -33 25 -34 26 -644 0 c-635 0
-644 -1 -676 -21z m-5338 -3568 c276 -53 464 -227 548 -506 18 -61 22 -86 15
-107 l-10 -28 -748 0 c-656 0 -749 2 -760 15 -28 34 17 238 65 295 7 8 19 27
26 42 13 25 97 117 136 148 170 137 458 193 728 141z m4615 -292 c283 -68 532
-276 644 -539 41 -97 76 -280 76 -400 0 -113 -36 -314 -68 -377 -11 -21 -23
-49 -27 -63 -23 -75 -188 -275 -275 -333 -96 -65 -133 -86 -190 -109 -104 -43
-234 -70 -360 -75 -98 -4 -134 -1 -245 22 -138 28 -201 52 -317 117 -36 21
-129 98 -171 142 -144 153 -211 303 -242 544 -17 125 -17 139 0 265 26 205 79
338 185 470 100 124 190 198 321 263 196 97 451 125 669 73z"/>
<path d="M46495 9786 c-143 -36 -250 -95 -360 -198 -173 -162 -252 -321 -270
-545 -23 -296 79 -525 326 -731 79 -66 119 -88 247 -135 85 -31 90 -32 257
-32 160 0 175 2 250 28 184 64 337 178 442 329 18 26 33 51 33 54 0 4 6 15 14
23 26 30 75 169 85 246 14 95 14 209 1 300 -11 73 -62 218 -86 246 -8 8 -14
19 -14 24 0 13 -72 104 -126 161 -81 83 -129 117 -249 178 -150 76 -371 96
-550 52z"/>
<path d="M31455 7389 c-44 -5 -98 -15 -120 -23 -22 -8 -58 -18 -80 -22 -80
-14 -301 -115 -410 -188 -22 -14 -48 -32 -59 -39 -73 -49 -232 -179 -254 -209
-16 -22 -68 -24 -76 -2 -3 9 -6 83 -6 166 0 123 -3 155 -17 179 -9 15 -22 30
-27 31 -6 2 -312 2 -679 0 l-668 -2 -9 -26 c-7 -16 -9 -748 -8 -2034 3 -1632
5 -2011 16 -2022 10 -10 149 -14 679 -16 l667 -2 23 27 22 28 1 1175 c0 1310
1 1322 62 1466 51 119 66 142 145 222 81 81 173 131 282 153 87 17 351 7 416
-15 150 -53 262 -136 336 -250 21 -33 39 -64 39 -70 0 -5 6 -17 13 -25 29 -34
68 -186 78 -296 5 -60 9 -616 9 -1235 -1 -1044 1 -1126 16 -1135 9 -5 24 -18
33 -27 14 -17 59 -18 662 -18 l647 0 26 34 25 34 4 1233 c3 1342 0 1276 59
1409 68 156 186 280 309 325 115 42 150 47 314 43 141 -4 170 -8 240 -32 44
-14 91 -34 105 -43 150 -95 247 -225 306 -408 l29 -90 3 -1221 3 -1221 39 -32
39 -31 638 0 639 0 32 33 33 34 -4 1409 c-3 1383 -4 1412 -25 1550 -49 325
-167 565 -377 767 -50 49 -65 60 -171 131 -33 21 -70 46 -84 55 -23 16 -118
63 -225 112 -59 27 -130 49 -223 69 -46 10 -98 24 -115 30 -62 22 -366 35
-517 22 -77 -6 -148 -16 -159 -22 -11 -5 -53 -17 -93 -25 -40 -9 -83 -22 -95
-30 -12 -8 -28 -15 -36 -15 -29 0 -274 -133 -342 -186 -11 -8 -50 -38 -88 -65
-94 -70 -227 -196 -344 -327 -37 -41 -40 -43 -67 -31 -15 7 -35 27 -43 43 -49
95 -233 296 -333 363 -168 112 -381 206 -545 239 -38 8 -92 21 -120 29 -98 30
-393 42 -570 24z"/>
<path d="M49478 7389 c-59 -4 -129 -14 -155 -22 -27 -9 -79 -21 -117 -27 -38
-6 -81 -17 -95 -24 -14 -8 -42 -17 -61 -21 -100 -20 -390 -176 -525 -281 -71
-56 -92 -75 -202 -184 -169 -167 -293 -339 -403 -558 -33 -66 -60 -122 -60
-126 0 -5 -7 -22 -15 -39 -20 -44 -71 -202 -84 -262 -6 -27 -18 -75 -26 -105
-20 -73 -45 -353 -45 -510 0 -156 25 -435 46 -515 9 -33 22 -85 29 -115 15
-66 60 -202 80 -247 8 -17 15 -34 15 -39 0 -4 27 -61 61 -128 133 -266 316
-497 544 -687 112 -93 126 -103 305 -208 41 -24 142 -71 153 -71 7 0 29 -9 49
-20 20 -11 58 -25 85 -31 26 -7 59 -18 73 -24 14 -7 61 -18 105 -25 44 -6 105
-19 135 -28 82 -25 609 -25 690 0 30 9 84 22 120 28 36 6 88 19 115 30 246 91
285 110 434 209 29 20 64 43 77 52 14 9 32 23 42 32 167 158 202 185 223 171
5 -3 9 -85 9 -183 0 -137 4 -187 15 -215 l15 -36 646 0 645 0 40 32 39 31 0
1986 0 1987 -34 32 -35 32 -653 1 c-487 0 -654 -3 -657 -12 -2 -6 -12 -20 -22
-30 -17 -17 -19 -35 -19 -147 0 -173 -13 -185 -109 -104 -54 46 -93 75 -132
98 -10 6 -27 18 -36 26 -10 9 -54 35 -98 58 -44 23 -84 45 -90 50 -5 4 -28 13
-50 20 -22 7 -45 16 -51 21 -19 15 -219 76 -274 84 -30 4 -72 14 -93 21 -82
29 -407 41 -649 23z m917 -1226 c109 -28 258 -100 335 -161 87 -70 186 -180
224 -247 9 -16 20 -37 25 -45 27 -45 53 -108 71 -177 11 -43 25 -94 30 -113 5
-19 10 -105 10 -190 0 -85 -5 -171 -10 -190 -5 -19 -19 -70 -30 -113 -18 -69
-44 -132 -71 -177 -5 -8 -16 -28 -25 -45 -18 -33 -102 -135 -145 -176 -131
-126 -265 -194 -454 -233 -163 -34 -267 -34 -432 0 -245 51 -412 155 -557 349
-138 185 -188 397 -166 706 10 137 28 205 87 324 71 145 115 201 235 301 236
197 562 266 873 187z"/>
<path d="M45982 7255 c-9 -20 -12 -528 -12 -2021 0 -1769 2 -1998 15 -2024
l16 -30 669 0 669 0 20 26 21 27 0 1990 c0 1524 -3 1998 -12 2024 l-12 33
-681 0 -682 0 -11 -25z"/>
</g>
</svg>
